<!DOCTYPE svg PUBLIC "-//W3C//DTD SVG 1.1//EN" "http://www.w3.org/Graphics/SVG/1.1/DTD/svg11.dtd">
<!-- Uploaded to: SVG Repo, www.svgrepo.com, Transformed by: SVG Repo Mixer Tools -->
<svg fill="#3B82F6" height="256px" width="256px" version="1.1" id="Layer_1" xmlns="http://www.w3.org/2000/svg" xmlns:xlink="http://www.w3.org/1999/xlink" viewBox="0 0 512.011 512.011" xml:space="preserve">
<g id="SVGRepo_bgCarrier" stroke-width="0"/>
<g id="SVGRepo_tracerCarrier" stroke-linecap="round" stroke-linejoin="round"/>
<g id="SVGRepo_iconCarrier"> <g> <g> <path d="M505.755,240.925L271.088,6.259c-8.341-8.341-21.824-8.341-30.165,0L6.256,240.925c-8.341,8.341-8.341,21.824,0,30.165 l234.667,234.667c4.16,4.16,9.621,6.251,15.083,6.251c5.461,0,10.923-2.091,15.083-6.251l234.667-234.667 C514.096,262.749,514.096,249.267,505.755,240.925z M362.672,298.675c0,11.776-9.557,21.333-21.333,21.333 c-11.776,0-21.333-9.557-21.333-21.333v-21.333h-128v21.333c0,11.776-9.557,21.333-21.333,21.333s-21.333-9.557-21.333-21.333 v-85.333c0-11.776,9.557-21.333,21.333-21.333s21.333,9.557,21.333,21.333v21.333h128v-21.333 c0-11.776,9.557-21.333,21.333-21.333c11.776,0,21.333,9.557,21.333,21.333V298.675z"/> </g> </g> </g>
</svg>